HIERARCHY
ROOT Hips
{
  OFFSET 5.80788e-005 67.184 3.4734
  CHANNELS 6 Xposition Yposition Zposition Zrotation Xrotation Yrotation
  JOINT Chest
  {
    OFFSET 0 8.7983 -4.7612
    CHANNELS 3 Zrotation Xrotation Yrotation
    JOINT Chest2
    {
      OFFSET 0 8.0291 0.4195
      CHANNELS 3 Zrotation Xrotation Yrotation
      JOINT Chest3
      {
        OFFSET 0 9.9351 -2.2114
        CHANNELS 3 Zrotation Xrotation Yrotation
        JOINT Neck
        {
          OFFSET 0 22.3885 -0.4656
          CHANNELS 3 Zrotation Xrotation Yrotation
          JOINT Head
          {
            OFFSET -0.0001 12.643 3.4389
            CHANNELS 3 Zrotation Xrotation Yrotation
            End Site
            {
              OFFSET 0.0001 17.6655 0.5274
            }
          }
        }
        JOINT LeftCollar
        {
          OFFSET 2.2603 21.606 7.4023
          CHANNELS 3 Zrotation Xrotation Yrotation
          JOINT LeftShoulder
          {
            OFFSET 13.5163 -1.1332 -5.0146
            CHANNELS 3 Zrotation Xrotation Yrotation
            JOINT LeftElbow
            {
              OFFSET -0.0995 -28.05 -0.2431
              CHANNELS 3 Zrotation Xrotation Yrotation
              JOINT LeftWrist
              {
                OFFSET 0.0679 -23.3996 -0.1402
                CHANNELS 3 Zrotation Xrotation Yrotation
                JOINT LeftFinger1
                {
                  OFFSET 0.7932 -9.069 2.5189
                  CHANNELS 3 Zrotation Xrotation Yrotation
                  JOINT LeftFinger11
                  {
                    OFFSET -0.8272 -3.3923 0.5977
                    CHANNELS 3 Zrotation Xrotation Yrotation
                    JOINT LeftFinger12
                    {
                      OFFSET -0.5649 -2.3158 0.4082
                      CHANNELS 3 Zrotation Xrotation Yrotation
                      End Site
                      {
                        OFFSET -0.4919 -1.6479 0.2673
                      }
                    }
                  }
                }
                JOINT LeftFinger2
                {
                  OFFSET 0.9159 -9.2044 0.2193
                  CHANNELS 3 Zrotation Xrotation Yrotation
                  JOINT LeftFinger21
                  {
                    OFFSET 0.0117 -4.1944 -0.0248
                    CHANNELS 3 Zrotation Xrotation Yrotation
                    JOINT LeftFinger22
                    {
                      OFFSET 0.0071 -2.3249 -0.0142
                      CHANNELS 3 Zrotation Xrotation Yrotation
                      End Site
                      {
                        OFFSET -0.1475 -2.0882 0.0028
                      }
                    }
                  }
                }
                JOINT LeftFinger3
                {
                  OFFSET 0.6113 -8.7231 -2.0637
                  CHANNELS 3 Zrotation Xrotation Yrotation
                  JOINT LeftFinger31
                  {
                    OFFSET -0.1927 -3.8059 -0.2383
                    CHANNELS 3 Zrotation Xrotation Yrotation
                    JOINT LeftFinger32
                    {
                      OFFSET -0.1091 -2.1688 -0.1362
                      CHANNELS 3 Zrotation Xrotation Yrotation
                      End Site
                      {
                        OFFSET -0.2358 -1.9176 -0.0906
                      }
                    }
                  }
                }
                JOINT LeftFinger4
                {
                  OFFSET -0.6151 -8.0947 -3.5641
                  CHANNELS 3 Zrotation Xrotation Yrotation
                  JOINT LeftFinger41
                  {
                    OFFSET -0.4882 -2.341 -0.6462
                    CHANNELS 3 Zrotation Xrotation Yrotation
                    JOINT LeftFinger42
                    {
                      OFFSET -0.3575 -1.7167 -0.4742
                      CHANNELS 3 Zrotation Xrotation Yrotation
                      End Site
                      {
                        OFFSET -0.4187 -1.5237 -0.3496
                      }
                    }
                  }
                }
                JOINT LeftFinger0
                {
                  OFFSET -1.42 -1.8761 1.4223
                  CHANNELS 3 Zrotation Xrotation Yrotation
                  JOINT LeftFinger01
                  {
                    OFFSET -1.1471 -3.4929 2.6334
                    CHANNELS 3 Zrotation Xrotation Yrotation
                    JOINT LeftFinger02
                    {
                      OFFSET -0.823 -2.3 1.6571
                      CHANNELS 3 Zrotation Xrotation Yrotation
                      End Site
                      {
                        OFFSET -0.5822 -1.6914 1.1582
                      }
                    }
                  }
                }
              }
            }
          }
        }
        JOINT RightCollar
        {
          OFFSET -2.2603 21.606 7.4023
          CHANNELS 3 Zrotation Xrotation Yrotation
          JOINT RightShoulder
          {
            OFFSET -13.5187 -1.1334 -5.0155
            CHANNELS 3 Zrotation Xrotation Yrotation
            JOINT RightElbow
            {
              OFFSET 0.0994 -28.0499 -0.2431
              CHANNELS 3 Zrotation Xrotation Yrotation
              JOINT RightWrist
              {
                OFFSET -0.0679 -23.3996 -0.1402
                CHANNELS 3 Zrotation Xrotation Yrotation
                JOINT RightFinger1
                {
                  OFFSET -0.7932 -9.0691 2.5189
                  CHANNELS 3 Zrotation Xrotation Yrotation
                  JOINT RightFinger11
                  {
                    OFFSET 0.8272 -3.3923 0.5977
                    CHANNELS 3 Zrotation Xrotation Yrotation
                    JOINT RightFinger12
                    {
                      OFFSET 0.565 -2.3158 0.4082
                      CHANNELS 3 Zrotation Xrotation Yrotation
                      End Site
                      {
                        OFFSET 0.4919 -1.6479 0.2673
                      }
                    }
                  }
                }
                JOINT RightFinger2
                {
                  OFFSET -0.916 -9.2044 0.2193
                  CHANNELS 3 Zrotation Xrotation Yrotation
                  JOINT RightFinger21
                  {
                    OFFSET -0.0117 -4.1944 -0.0248
                    CHANNELS 3 Zrotation Xrotation Yrotation
                    JOINT RightFinger22
                    {
                      OFFSET -0.0071 -2.3249 -0.0142
                      CHANNELS 3 Zrotation Xrotation Yrotation
                      End Site
                      {
                        OFFSET 0.1475 -2.0882 0.0028
                      }
                    }
                  }
                }
                JOINT RightFinger3
                {
                  OFFSET -0.6113 -8.7231 -2.0637
                  CHANNELS 3 Zrotation Xrotation Yrotation
                  JOINT RightFinger31
                  {
                    OFFSET 0.1927 -3.8059 -0.2383
                    CHANNELS 3 Zrotation Xrotation Yrotation
                    JOINT RightFinger32
                    {
                      OFFSET 0.1091 -2.1688 -0.1362
                      CHANNELS 3 Zrotation Xrotation Yrotation
                      End Site
                      {
                        OFFSET 0.2358 -1.9176 -0.0906
                      }
                    }
                  }
                }
                JOINT RightFinger4
                {
                  OFFSET 0.6151 -8.0947 -3.564
                  CHANNELS 3 Zrotation Xrotation Yrotation
                  JOINT RightFinger41
                  {
                    OFFSET 0.4882 -2.341 -0.6462
                    CHANNELS 3 Zrotation Xrotation Yrotation
                    JOINT RightFinger42
                    {
                      OFFSET 0.3574 -1.7166 -0.4742
                      CHANNELS 3 Zrotation Xrotation Yrotation
                      End Site
                      {
                        OFFSET 0.4187 -1.5237 -0.3496
                      }
                    }
                  }
                }
                JOINT RightFinger0
                {
                  OFFSET 1.4199 -1.8761 1.4221
                  CHANNELS 3 Zrotation Xrotation Yrotation
                  JOINT RightFinger01
                  {
                    OFFSET 1.1472 -3.4929 2.6336
                    CHANNELS 3 Zrotation Xrotation Yrotation
                    JOINT RightFinger02
                    {
                      OFFSET 0.8229 -2.3 1.6571
                      CHANNELS 3 Zrotation Xrotation Yrotation
                      End Site
                      {
                        OFFSET 0.5822 -1.6914 1.1582
                      }
                    }
                  }
                }
              }
            }
          }
        }
      }
    }
  }
  JOINT RightHip
  {
    OFFSET -9.412 3.9771 -0.7758
    CHANNELS 3 Zrotation Xrotation Yrotation
    JOINT RightKnee
    {
      OFFSET -0.7531 -40.938 0
      CHANNELS 3 Zrotation Xrotation Yrotation
      JOINT RightAnkle
      {
        OFFSET 0 -40.1986 0
        CHANNELS 3 Zrotation Xrotation Yrotation
        JOINT RightToe
        {
          OFFSET 0 -4.4182 9.239
          CHANNELS 3 Zrotation Xrotation Yrotation
          End Site
          {
            OFFSET 0 0 6.1981
          }
        }
      }
    }
  }
  JOINT LeftHip
  {
    OFFSET 9.4119 3.9773 -0.7758
    CHANNELS 3 Zrotation Xrotation Yrotation
    JOINT LeftKnee
    {
      OFFSET 0.7532 -40.9383 0
      CHANNELS 3 Zrotation Xrotation Yrotation
      JOINT LeftAnkle
      {
        OFFSET 0 -40.1986 0
        CHANNELS 3 Zrotation Xrotation Yrotation
        JOINT LeftToe
        {
          OFFSET 0 -4.4182 9.239
          CHANNELS 3 Zrotation Xrotation Yrotation
          End Site
          {
            OFFSET 0 0 6.1981
          }
        }
      }
    }
  }
}
MOTION
Frames:	5
Frame Time:	0.0333333
11.0486 22.1303 51.7075 -0.0133503 0.011013 -169.105 -0.598013 3.23023 0.0406882 -1.2012 6.45984 0.115526 -1.2012 6.45985 0.115525 17.4173 9.72378 4.09065 8.40907 -36.0425 4.94018 -2.34572 -65.7195 25.0047 31.9359 33.4079 -5.38121 55.9172 -11.5521 18.0737 -10.761 -2.38732 29.0421 -1.59028e-015 -1.15295e-014 1.59028e-015 -1.59028e-015 -4.77083e-015 3.18055e-015 -4.77083e-015 -4.37326e-015 3.18055e-015 -1.59028e-015 -1.15295e-014 1.59028e-015 -0.0128117 0.00232889 7.93444e-005 -3.18055e-015 -5.56597e-015 -0 -1.59028e-015 -1.15295e-014 1.59028e-015 -0.0160878 0.00300233 0.000853911 2.20695e-032 3.97569e-016 -3.18055e-015 -1.59028e-015 -1.15295e-014 1.59028e-015 -0.0126372 0.00313843 0.00282642 1.59028e-015 -5.1684e-015 -1.59028e-015 -1.59028e-015 -1.15295e-014 1.59028e-015 -1.59028e-015 -4.77083e-015 3.18055e-015 -4.77083e-015 -4.37326e-015 3.18055e-015 5.8579 1.15111 26.465 -26.1102 -24.0759 -16.5332 15.0522 -47.1605 6.45866 -2.90505 10.2778 30.8152 -1.78963e-007 5.82065e-006 -2.81211e-006 -0 0 3.18055e-015 1.45057e-006 -9.53178e-006 4.56907e-006 -1.78963e-007 5.82065e-006 -2.81211e-006 0.0129423 0.00231171 -8.44932e-005 6.36111e-015 -6.36111e-015 3.18055e-015 -1.78963e-007 5.82065e-006 -2.81211e-006 0.0163103 0.00303671 -0.000875926 -3.18055e-015 1.59028e-015 3.18055e-015 -1.78963e-007 5.82065e-006 -2.81211e-006 0.0145541 0.00367566 -0.00325794 -2.54139e-006 -1.83356e-006 -3.51443e-006 -1.78963e-007 5.82065e-006 -2.81211e-006 -0 0 3.18055e-015 1.45057e-006 -9.53178e-006 4.56907e-006 0.616075 -19.0745 -6.92092 -169.004 56.8776 163.704 -4.73162 51.5083 -8.67797 -3.86868e-007 -1.74295e-007 1.76403e-007 7.32234 -21.5186 3.19844 167.342 62.4615 -163.414 14.7553 50.5994 -5.13433 -5.96354e-016 3.18055e-015 7.95139e-016 
11.4445 21.9733 51.8136 -0.0133532 0.011028 -169.105 -0.45913 3.24421 0.0618797 -0.924006 6.48781 0.150247 -0.924008 6.48782 0.15025 18.0322 9.74251 3.30672 8.5997 -36.0136 5.05069 -2.89041 -65.8927 25.0609 32.0519 33.4687 -5.44034 54.7823 -10.4777 17.9797 -11.3708 -2.17559 29.2306 1.59028e-015 -5.1684e-015 -0 -3.18055e-015 -1.59028e-015 -3.18055e-015 -1.59028e-015 2.78299e-015 -0 1.59028e-015 -5.1684e-015 -0 -0.0127483 0.00230804 7.84122e-005 3.18055e-015 3.97569e-015 -3.18055e-015 1.59028e-015 -5.1684e-015 -0 -0.016043 0.00299819 0.000843186 9.2692e-031 1.66979e-014 -3.18055e-015 1.59028e-015 -5.1684e-015 -0 -0.0125832 0.00311974 0.00282732 -1.59028e-015 -6.75868e-015 3.18055e-015 1.59028e-015 -5.1684e-015 -0 -3.18055e-015 -1.59028e-015 -3.18055e-015 -1.59028e-015 2.78299e-015 -0 6.07066 3.62389 26.1732 -25.4494 -23.8971 -16.1594 15.8772 -47.8949 7.1071 -4.07906 11.2668 34.5809 -1.75333e-007 -6.89484e-006 1.27095e-005 2.25196e-006 -8.33655e-007 6.87122e-007 3.18055e-015 6.36111e-015 -3.18055e-015 -1.75333e-007 -6.89484e-006 1.27095e-005 0.0129554 0.00230969 -9.06127e-005 -4.23735e-030 1.27222e-014 1.90833e-014 -1.75333e-007 -6.89484e-006 1.27095e-005 0.0163324 0.00303939 -0.000888123 -6.36111e-015 0 -1.59028e-015 -1.75333e-007 -6.89484e-006 1.27095e-005 0.014546 0.00368036 -0.00327371 -6.36111e-015 9.54166e-015 -7.95139e-015 -1.75333e-007 -6.89484e-006 1.27095e-005 2.25196e-006 -8.33655e-007 6.87122e-007 3.18055e-015 6.36111e-015 -3.18055e-015 1.00797 -19.4861 -7.21882 -169.119 56.4791 163.774 -4.2243 51.5518 -9.50144 -3.15693e-007 -7.29985e-008 -1.56635e-006 7.70219 -21.9465 2.9653 167.344 62.4567 -163.41 15.2775 50.5818 -6.00811 -1.3249e-007 2.89512e-006 5.84882e-007 
11.8404 21.8163 51.9197 -0.0133503 0.011013 -169.105 -0.320288 3.25822 0.0831587 -0.646895 6.51591 0.185048 -0.646896 6.51591 0.185048 18.6472 9.75284 2.52281 8.79013 -35.9845 5.161 -3.43834 -66.0661 25.1134 32.1653 33.5329 -5.49816 53.656 -9.40378 17.9102 -11.9811 -1.96595 29.4213 -1.59028e-015 3.97569e-016 -3.97569e-015 -1.59028e-015 1.07344e-014 -2.38542e-015 -1.59028e-015 -2.38542e-015 -2.38542e-015 -1.59028e-015 3.97569e-016 -3.97569e-015 -0.0127214 0.00231151 8.65587e-005 1.32417e-031 4.77083e-015 -1.59028e-015 -1.59028e-015 3.97569e-016 -3.97569e-015 -0.0160791 0.00300082 0.000853621 9.27183e-006 -2.6761e-006 1.46504e-005 -1.59028e-015 3.97569e-016 -3.97569e-015 -0.0125083 0.00310438 0.00280314 1.41623e-006 -3.63126e-007 -1.94899e-006 -1.59028e-015 3.97569e-016 -3.97569e-015 -1.59028e-015 1.07344e-014 -2.38542e-015 -1.59028e-015 -2.38542e-015 -2.38542e-015 6.2956 6.08385 25.8728 -24.7914 -23.7145 -15.7886 16.7269 -48.6223 7.78061 -5.10548 12.3366 38.3096 -8.82781e-032 -3.18055e-015 -1.59028e-015 3.18055e-015 6.36111e-015 1.59028e-015 2.64834e-031 -9.54166e-015 1.59028e-015 -8.82781e-032 -3.18055e-015 -1.59028e-015 0.0129586 0.00231565 -9.97701e-005 -1.27222e-014 1.59028e-015 -3.18055e-015 -8.82781e-032 -3.18055e-015 -1.59028e-015 0.0163121 0.00301961 -0.000885093 -3.18055e-015 -3.18055e-015 -0 -8.82781e-032 -3.18055e-015 -1.59028e-015 0.0145958 0.00368463 -0.00327782 9.54166e-015 -3.97569e-015 -7.95139e-015 -8.82781e-032 -3.18055e-015 -1.59028e-015 3.18055e-015 6.36111e-015 1.59028e-015 2.64834e-031 -9.54166e-015 1.59028e-015 1.39926 -19.9036 -7.51476 -169.234 56.0763 163.843 -3.71478 51.5908 -10.327 3.86878e-007 1.74375e-007 -1.76394e-007 8.08119 -22.377 2.73451 167.347 62.4509 -163.406 15.799 50.5592 -6.88116 1.07674e-006 2.83301e-006 -6.78244e-007 
12.2362 21.6594 52.0257 -0.0133532 0.011028 -169.105 -0.181487 3.27221 0.104474 -0.369869 6.54406 0.219916 -0.369868 6.54408 0.219914 19.262 9.7549 1.73906 8.98043 -35.955 5.27116 -3.98956 -66.2397 25.1621 32.2818 33.5932 -5.55782 52.5316 -8.32698 17.8595 -12.5918 -1.75838 29.6141 -7.95139e-015 -3.88808e-008 2.38542e-015 -1.59028e-015 -7.35503e-015 -5.56597e-015 -1.59028e-015 3.88808e-008 -5.56597e-015 -7.95139e-015 -3.88808e-008 2.38542e-015 -0.0128917 0.00233623 8.97628e-005 4.67643e-006 -4.67235e-006 1.50449e-007 -7.95139e-015 -3.88808e-008 2.38542e-015 -0.0159575 0.00297496 0.000847816 1.16475e-006 -1.03646e-006 1.2376e-006 -7.95139e-015 -3.88808e-008 2.38542e-015 -0.0125295 0.00310906 0.00282031 -7.6286e-006 -8.93996e-007 -5.82695e-006 -7.95139e-015 -3.88808e-008 2.38542e-015 -1.59028e-015 -7.35503e-015 -5.56597e-015 -1.59028e-015 3.88808e-008 -5.56597e-015 6.53372 8.52962 25.5624 -24.1362 -23.5281 -15.4208 17.602 -49.3425 8.48004 -5.9878 13.4907 42.008 1.32417e-031 2.38542e-015 -3.18055e-015 6.36111e-015 -7.15625e-015 -3.18055e-015 6.36111e-015 -7.95139e-016 -7.95139e-015 1.32417e-031 2.38542e-015 -3.18055e-015 0.0129446 0.00232261 -0.000102633 9.54166e-015 6.36111e-015 -1.59028e-015 1.32417e-031 2.38542e-015 -3.18055e-015 0.0163415 0.0030443 -0.0008859 -1.20013e-005 4.63673e-007 -4.9785e-006 1.32417e-031 2.38542e-015 -3.18055e-015 0.0145753 0.0036823 -0.00326197 1.59028e-014 -1.19271e-014 -0 1.32417e-031 2.38542e-015 -3.18055e-015 6.36111e-015 -7.15625e-015 -3.18055e-015 6.36111e-015 -7.95139e-016 -7.95139e-015 1.78999 -20.2546 -7.81003 -169.318 55.7393 163.886 -3.20326 51.6251 -11.1545 1.61892e-006 -8.64167e-006 -2.44817e-006 8.45975 -22.8077 2.50631 167.35 62.4463 -163.402 16.3196 50.5317 -7.75336 4.62134e-007 4.12522e-006 7.16549e-007 
12.6321 21.5026 52.1317 -0.0133532 0.011028 -169.105 -0.0427362 3.28621 0.125874 -0.0929483 6.57231 0.25485 -0.0929495 6.57233 0.254854 19.8765 9.74866 0.955725 9.17058 -35.9252 5.38115 -4.54407 -66.4135 25.2071 32.3963 33.6562 -5.61646 51.2873 -8.10702 18.7674 -13.2011 -1.56717 29.8689 8.00721e-007 3.27056e-006 -1.80061e-006 -1.59028e-015 -3.37934e-015 -0 -1.59028e-015 5.76476e-015 -7.95139e-016 8.00721e-007 3.27056e-006 -1.80061e-006 -0.0127676 0.00230225 7.98885e-005 4.77083e-015 -6.75868e-015 -0 8.00721e-007 3.27056e-006 -1.80061e-006 -0.0160387 0.00299918 0.000863359 -3.18055e-015 7.95139e-016 7.95139e-016 8.00721e-007 3.27056e-006 -1.80061e-006 -0.0126188 0.00312499 0.00283527 6.06912e-032 4.37326e-015 -7.95139e-016 8.00721e-007 3.27056e-006 -1.80061e-006 -1.59028e-015 -3.37934e-015 -0 -1.59028e-015 5.76476e-015 -7.95139e-016 6.77905 10.9514 25.1916 -23.4828 -23.3378 -15.0559 18.503 -50.0554 9.20666 -6.99167 14.5616 45.7636 9.54166e-015 -5.56597e-015 -1.59028e-015 3.16742e-006 -9.58858e-007 -2.61128e-007 2.65154e-006 -2.08372e-006 -1.6231e-006 9.54166e-015 -5.56597e-015 -1.59028e-015 0.0129527 0.00230217 -8.71128e-005 -3.18055e-015 2.38542e-014 1.43125e-014 9.54166e-015 -5.56597e-015 -1.59028e-015 0.0163445 0.00302538 -0.000875192 -3.25763e-006 6.55938e-006 -8.63196e-006 9.54166e-015 -5.56597e-015 -1.59028e-015 0.0146005 0.00367966 -0.00327417 2.652e-006 6.23679e-007 -1.62301e-006 9.54166e-015 -5.56597e-015 -1.59028e-015 3.16742e-006 -9.58858e-007 -2.61128e-007 2.65154e-006 -2.08372e-006 -1.6231e-006 2.17984 -20.7264 -8.10135 -169.45 55.2865 163.968 -2.68991 51.6549 -11.9838 -1.59028e-015 -3.18055e-015 -3.18055e-015 8.83769 -23.2393 2.28055 167.352 62.4421 -163.398 16.8392 50.4993 -8.62439 -6.98463e-007 -2.91623e-006 -1.07138e-006 
